# xmcd
# 
# Track frame offsets:
#   150
#   15604
#   35996
#   58042
#   76922
#   97757
#   117864
#   140851
#   156231
#   174846
#   193496
#   211714
#   226268
#   245223
#   262245
# 
# Disc length: 3755 seconds
# 
# Revision: 1
# Processed by: cddbd v1.5.2PL0 Copyright (c) Steve Scherf et al.
# Submitted via: Synapstar 1.0 
# 
DISCID=d50ea90f
DTITLE=Various Artist - SC8877
DYEAR=1900
DGENRE=Country
TTITLE0=Montgomery Gentry - If You Ever Stop Living Me
TTITLE1=Paisley, Brad and Krauss, Alison - Whiskey Lullaby
TTITLE2=Cagle, Chris - I'd Be Lying
TTITLE3=McBride, Martina - How Far
TTITLE4=Dixie Chicks - Truth No. 2
TTITLE5=McGraw, Tim - Real Good Man
TTITLE6=Urban, Keith - You'll Think Of Me
TTITLE7=Williams, Hank Jr - Why Can't We All Just Get A Longneck
TTITLE8=Nichols, Joe - If Nobody Believed In You
TTITLE9=Lonestar - Let's Be Us Again
TTITLE10=Gracin, Josh - I Want To Live
TTITLE11=Jones, Norah and Parton, Dolly - Creepin' In
TTITLE12=Keith, Toby - Whiskey Girl
TTITLE13=Wilson, Gretchen - Redneck Woman
TTITLE14=Big and Rich - Wild West Show (Duet)
EXTD=MediaType: Karaoke CD+G Producer: Sound Choice
EXTT0=
EXTT1=
EXTT2=
EXTT3=
EXTT4=
EXTT5=
EXTT6=
EXTT7=
EXTT8=
EXTT9=
EXTT10=
EXTT11=
EXTT12=
EXTT13=
EXTT14=
PLAYORDER=
